<svg version="1.1" viewBox="0.0 0.0 960.0 540.0" fill="none" stroke="none" stroke-linecap="square" stroke-miterlimit="10" xmlns:xlink="http://www.w3.org/1999/xlink" xmlns="http://www.w3.org/2000/svg"><clipPath id="g1dfc9ecf77e_2_1124.0"><path d="m0 0l960.0 0l0 540.0l-960.0 0l0 -540.0z" clip-rule="nonzero"/></clipPath><g clip-path="url(#g1dfc9ecf77e_2_1124.0)"><defs><linearGradient id="g1dfc9ecf77e_2_1124.1" gradientUnits="userSpaceOnUse" gradientTransform="matrix(23.242106579261463 0.0 0.0 23.242106579261463 0.0 0.0)" spreadMethod="pad" x1="1.7130817638910854E-6" y1="-0.008411760736123021" x2="-0.004731615683309229" y2="23.23369433654662"><stop offset="0.0" stop-color="#000000"/><stop offset="1.0" stop-color="#061a38"/></linearGradient></defs><path fill="url(#g1dfc9ecf77e_2_1124.1)" d="m0 0l960.0 0l0 540.0l-960.0 0z" fill-rule="evenodd"/><path fill="#0088d3" fill-opacity="0.2745" d="m107.38156 25.465572c-6.9678116 25.13853 -33.943214 35.292995 -60.492775 30.715202c-27.86814 -5.0240326 -53.049564 18.389454 -53.049564 18.389454c0 0 -1.9692283 -94.424576 -1.214828 -97.1463c0.69499826 -2.5074234 120.552765 15.8511715 115.682846 43.994286c-0.24861908 1.3965054 -0.56333923 2.7400742 -0.92568207 4.0473633z" fill-rule="evenodd"/><path fill="#740fa3" fill-opacity="0.2549" d="m970.31055 69.055664c-12.742981 4.8038254 -34.41034 -22.406532 -50.190125 -30.379814c-16.6745 -8.693029 -45.81732 -3.705616 -51.646362 -15.430115c-4.0200806 -8.67525 3.6224976 -22.07232 23.175964 -29.443552c12.576843 -4.7412047 30.079285 -6.984689 52.580505 -3.8760982c0 0 37.28308 4.4564466 40.539307 13.094425c3.315857 8.796183 -14.043335 16.044905 -15.900818 26.09568c-1.7022705 9.983229 16.513062 27.43691 4.200989 38.24875c-0.866333 0.7692871 -1.786499 1.3239594 -2.7594604 1.6907272z" fill-rule="evenodd"/><path fill="#740fa3" fill-opacity="0.1451" d="m740.40015 478.1211c3.375061 -12.323944 35.977905 -13.781677 50.72876 -21.370148c15.790344 -7.8712463 28.064148 -32.749786 40.179443 -30.714752c8.8029175 1.7282104 14.763855 14.914886 9.585022 33.825348c-3.3311157 12.1633 -11.273315 26.6904 -26.034424 42.063843c0 0 -23.93103 25.855438 -32.284668 23.567657c-8.506653 -2.3296509 -4.444031 -19.506348 -11.052246 -26.455841c-6.642517 -6.7944336 -29.934326 -2.5811768 -31.358826 -17.888916c-0.10668945 -1.0818481 -0.020751953 -2.0862732 0.23693848 -3.0271912z" fill-rule="evenodd"/><path fill="#740fa3" fill-opacity="0.1451" d="m-10.433071 468.86478c171.16228 -0.89749146 222.79922 75.22385 292.12888 78.0903c58.66931 2.500122 69.578186 -13.581299 93.58264 -26.091125c23.755981 -12.693024 41.4487 -16.795807 82.42526 -15.367157c40.96414 1.2454834 36.11853 -42.886932 89.693695 -46.99887c54.059753 -3.9288025 78.78485 41.275116 99.633484 49.673004c21.097107 8.223907 36.13092 -3.214447 56.482544 -8.571899c19.879456 -5.357422 31.28534 -4.8262634 76.85901 -4.8262634c45.809753 0 64.96863 -60.213867 109.57318 -68.611755c44.36853 -8.581055 75.15686 15.009949 75.15686 15.009949l0 118.825134l-973.10034 0l-2.435236 -91.13132z" fill-rule="evenodd"/><path fill="#0088d3" fill-opacity="0.2745" d="m857.13916 512.4262c6.9678345 -25.13855 33.943237 -35.29303 60.492798 -30.71521c27.868103 5.0240173 53.04956 -18.389465 53.04956 -18.389465c0 0 1.9692383 94.42456 1.2148438 97.1463c-0.6950073 2.5074463 -120.552795 -15.851196 -115.68286 -43.994263c0.24859619 -1.3965454 0.5633545 -2.7401123 0.9256592 -4.0473633z" fill-rule="evenodd"/><path fill="#00c970" fill-opacity="0.1373" d="m58.51747 506.4344c-9.984394 7.501526 -36.046593 -10.886353 -51.98561 -13.852325c-16.911459 -3.369751 -41.28602 8.505371 -49.42841 -0.3183899c-5.766857 -6.6041565 -2.4792595 -20.360168 12.841301 -31.87088c9.854244 -7.403717 24.686047 -13.873779 45.29287 -16.916382c0 0 33.965916 -5.652588 39.05074 1.1149597c5.177948 6.8914795 -8.242397 17.730774 -7.2965126 27.055328c1.0651779 9.22522 21.582844 19.911072 13.520672 32.590637c-0.56513214 0.89971924 -1.2327385 1.6242981 -1.9950485 2.197052z" fill-rule="evenodd"/><path fill="#ffffff" d="m922.65216 287.07486l-1.1259766 7.530182c-0.10235596 1.0236206 -0.92388916 1.9448853 -1.9475098 2.0997314l-4.9658813 1.0236206l4.9658813 1.0236206c1.0236206 0.20474243 1.8451538 1.1259766 1.9475098 2.1496277l1.1259766 7.530182l1.0761108 -7.530182c0.10235596 -1.0236511 0.9711304 -1.9448853 1.9973755 -2.1496277l4.9160156 -1.0236206l-4.9160156 -1.0236206c-1.0262451 -0.15484619 -1.8950195 -1.0761108 -1.9973755 -2.0997314l-1.0761108 -7.530182z" fill-rule="evenodd"/><path fill="#ffffff" d="m24.02939 112.18769l-2.245432 14.088432c-0.079343796 0.7736511 -0.3887844 1.5473099 -0.8529453 2.1662292c-3.0190334 -2.9398804 -6.1134424 -5.729004 -8.823034 -7.9706116l0 0c2.245431 2.705803 5.0303993 5.8043823 7.970089 8.823608c-0.61888313 0.46420288 -1.2377644 0.8530121 -2.0113678 0.9283905l-9.287195 1.9361115l9.287195 1.9361267c0.77360344 0.2301178 1.3924847 0.53956604 2.0113678 1.0037689c-2.9396896 3.019226 -5.724658 6.117813 -8.049433 8.827576c2.7095919 -2.245575 5.807968 -5.0346985 8.827002 -7.974579c0.46416092 0.618927 0.77360153 1.3925781 0.84897804 2.1662292l2.015335 14.167786l2.0867424 -14.167786c0.079343796 -0.7736511 0.46416092 -1.5473022 0.8529453 -2.1662292c3.5625381 3.4040833 6.7323227 6.268585 8.823036 7.974579c-1.4678612 -1.9361115 -4.411518 -5.1894226 -7.739992 -8.74823c0.5435047 -0.46418762 1.2377625 -0.8529968 2.011366 -0.9283905l9.291164 -1.9361115l-9.291164 -1.9361115c-0.77360344 -0.2301178 -1.4678612 -0.5395813 -2.011366 -1.0077362c3.328474 -3.5588074 6.3475056 -6.732773 7.9740543 -8.823624l0 0c-2.011364 1.7020416 -5.1851196 4.5665436 -8.747658 7.974579c-0.5435047 -0.6189194 -0.77360153 -1.3925705 -0.92832184 -2.170189l-2.011366 -14.163818z" fill-rule="evenodd"/><path fill="#ffffff" d="m894.731 505.23883c-3.4782104 0 -6.3060913 2.8274841 -6.3060913 6.308899c0 3.4071045 2.8278809 6.234619 6.3060913 6.234619c3.4075317 0 6.2354126 -2.8275146 6.2354126 -6.234619c0 -3.4814148 -2.8278809 -6.308899 -6.2354126 -6.308899z" fill-rule="evenodd"/><path fill="#ffffff" d="m35.524933 429.23233l-1.1259842 7.530182c-0.10235977 1.0236206 -0.92388153 1.9448853 -1.947506 2.0997314l-4.9658775 1.0236206l4.9658775 1.0236511c1.0236244 0.20471191 1.8451462 1.1259766 1.947506 2.1495972l1.1259842 7.530182l1.0761185 -7.530182c0.10235977 -1.0236206 0.97112656 -1.9448853 1.9973755 -2.1495972l4.916008 -1.0236511l-4.916008 -1.0236206c-1.0262489 -0.15484619 -1.8950157 -1.0761108 -1.9973755 -2.0997314l-1.0761185 -7.530182z" fill-rule="evenodd"/><path fill="#ffffff" d="m908.356 14.64252l-0.88134766 5.893874c-0.080078125 0.8011894 -0.7230835 1.5222588 -1.524292 1.643465l-3.8867798 0.8011894l3.8867798 0.8011875c0.8012085 0.16023827 1.4442139 0.8813095 1.524292 1.682497l0.88134766 5.893875l0.8422241 -5.893875c0.08013916 -0.8011875 0.76013184 -1.5222588 1.5633545 -1.682497l3.8477783 -0.8011875l-3.8477783 -0.8011894c-0.80322266 -0.12120628 -1.4832153 -0.8422756 -1.5633545 -1.643465l-0.8422241 -5.893874z" fill-rule="evenodd"/><path fill="#ffffff" d="m191.02928 516.32947c-1.7467041 0 -3.1668396 1.4197388 -3.1668396 3.1677856c0 1.7107544 1.4201355 3.1304932 3.1668396 3.1304932c1.7112579 0 3.1313934 -1.4197388 3.1313934 -3.1304932c0 -1.7480469 -1.4201355 -3.1677856 -3.1313934 -3.1677856z" fill-rule="evenodd"/><path fill="#ffffff" d="m75.652176 44.444935l-1.4855652 9.3202095c-0.052490234 0.5118103 -0.2572174 1.0236206 -0.56430054 1.4330711c-1.9973755 -1.9448814 -4.0446167 -3.7900276 -5.8372726 -5.2729645l0 0c1.4855652 1.7900238 3.3280869 3.8398933 5.2729645 5.837269c-0.40944672 0.30708694 -0.81889343 0.56430435 -1.3307037 0.6141739l-6.144356 1.280838l6.144356 1.2808418c0.5118103 0.15222931 0.921257 0.35695267 1.3307037 0.6640396c-1.9448776 1.9973755 -3.7873993 4.047245 -5.3254547 5.8398933c1.7926483 -1.4855614 3.8425217 -3.3307037 5.839897 -5.275589c0.30708313 0.40945053 0.5118103 0.92126083 0.561676 1.4330711l1.3333359 9.372707l1.3805771 -9.372707c0.052490234 -0.5118103 0.30708313 -1.0236206 0.56430054 -1.4330711c2.3569565 2.2519684 4.454071 4.1469803 5.8372726 5.275589c-0.9711304 -1.280838 -2.9186325 -3.4330673 -5.120735 -5.7873993c0.359581 -0.30708694 0.81890106 -0.56430435 1.3307114 -0.6141739l6.1469803 -1.280838l-6.1469803 -1.2808418c-0.5118103 -0.15222931 -0.9711304 -0.35695267 -1.3307114 -0.6666641c2.2021027 -2.354332 4.199478 -4.454071 5.275589 -5.8372726l0 0c-1.3307037 1.1259842 -3.4304428 3.021 -5.7873993 5.275593c-0.359581 -0.40945053 -0.5118103 -0.92126083 -0.6141739 -1.4356956l-1.3307114 -9.370079z" fill-rule="evenodd"/><path fill="#ffffff" d="m131.83507 31.35832c-1.7467194 0 -3.1668549 1.419733 -3.1668549 3.167818c0 1.7107697 1.4201355 3.1305046 3.1668549 3.1305046c1.7112427 0 3.1313782 -1.419735 3.1313782 -3.1305046c0 -1.748085 -1.4201355 -3.167818 -3.1313782 -3.167818z" fill-rule="evenodd"/><path fill="#ffffff" d="m23.946217 45.783516c-3.4781857 0 -6.3060703 2.8274841 -6.3060703 6.308895c0 3.4071007 2.8278847 6.234585 6.3060703 6.234585c3.4075813 0 6.235466 -2.8274841 6.235466 -6.234585c0 -3.481411 -2.8278847 -6.308895 -6.235466 -6.308895z" fill-rule="evenodd"/><path fill="#ffffff" d="m854.7261 499.7685l-0.8812866 5.8938904c-0.08013916 0.801178 -0.72314453 1.5222473 -1.524353 1.6434631l-3.8867798 0.801178l3.8867798 0.8012085c0.8012085 0.16021729 1.4442139 0.8812866 1.524353 1.6824951l0.8812866 5.8938904l0.84228516 -5.8938904c0.080078125 -0.8012085 0.7600708 -1.5222778 1.5633545 -1.6824951l3.8477173 -0.8012085l-3.8477173 -0.801178c-0.8032837 -0.12121582 -1.4832764 -0.84228516 -1.5633545 -1.6434631l-0.84228516 -5.8938904z" fill-rule="evenodd"/><path fill="#ffffff" d="m944.04504 45.783516c-1.7467041 0 -3.16687 1.419735 -3.16687 3.16782c0 1.7107697 1.420166 3.1305046 3.16687 3.1305046c1.7112427 0 3.1313477 -1.419735 3.1313477 -3.1305046c0 -1.748085 -1.420105 -3.16782 -3.1313477 -3.16782z" fill-rule="evenodd"/></g></svg>