<svg version="1.1" viewBox="0.0 0.0 960.0 540.0" fill="none" stroke="none" stroke-linecap="square" stroke-miterlimit="10" xmlns:xlink="http://www.w3.org/1999/xlink" xmlns="http://www.w3.org/2000/svg"><clipPath id="g1dfc9ecf77e_2_2221.0"><path d="m0 0l960.0 0l0 540.0l-960.0 0l0 -540.0z" clip-rule="nonzero"/></clipPath><g clip-path="url(#g1dfc9ecf77e_2_2221.0)"><defs><linearGradient id="g1dfc9ecf77e_2_2221.1" gradientUnits="userSpaceOnUse" gradientTransform="matrix(23.238126853633812 0.0 0.0 23.238126853633812 0.0 0.0)" spreadMethod="pad" x1="41.31141920545468" y1="23.23812685503607" x2="41.311673335740146" y2="2.7918307161143867E-9"><stop offset="0.0" stop-color="#000000"/><stop offset="1.0" stop-color="#061a38"/></linearGradient></defs><path fill="url(#g1dfc9ecf77e_2_2221.1)" d="m0 0l960.0 0l0 540.0l-960.0 0z" fill-rule="evenodd"/><path fill="#740fa3" fill-opacity="0.2549" d="m168.98137 -27.095882c1.1959991 -0.9181881 14.83934 -4.4543934 19.799927 -0.68746376c4.9158325 3.8116608 3.0771027 9.509142 9.278412 9.968235c6.201309 0.459095 8.729858 -4.134203 15.251358 -1.8387318c6.476761 2.2978268 15.206619 -3.8587475 29.584518 11.392607c14.377884 15.298441 24.760483 1.0100079 28.113052 -0.78163815c3.3078308 -1.791645 14.33316 -13.596259 30.319092 -15.343173c19.154816 -2.0671024 33.165436 3.446741 33.165436 15.804622c0 12.402615 -5.742218 19.291386 -5.742218 19.291386c0 0 -10.151855 -7.211315 -19.062988 -4.454394c-8.911163 2.7569213 -11.668091 15.434992 -24.899414 15.02063c-13.273712 -0.459095 -18.3732 -8.452048 -28.70871 -8.958229c-10.33786 -0.45909405 -21.49974 15.482079 -41.75876 19.936472c-20.256668 4.412018 -28.70871 -12.263708 -48.41681 -14.238991c-19.70575 -2.0223703 -20.854675 -17.777552 -18.69574 -22.646309c2.067093 -4.779291 21.772842 -22.465023 21.772842 -22.465023z" fill-rule="evenodd"/><path fill="#740fa3" fill-opacity="0.2549" d="m821.9262 131.91287c0 16.247849 39.495056 28.985916 55.036926 43.246902c16.721863 14.956894 23.41864 49.590714 38.96051 51.164062c11.376526 0.8371124 23.11615 -13.333115 23.11615 -38.264618c0 -16.036057 -4.861267 -36.519836 -17.801025 -60.331856c0 0 -20.665344 -39.747208 -31.678772 -39.747208c-11.215149 0 -12.001831 22.430298 -22.440369 28.733772c-10.428467 6.1017685 -37.578857 -6.8884354 -44.467285 11.406769c-0.49420166 1.2909546 -0.72613525 2.551651 -0.72613525 3.7921753z" fill-rule="evenodd"/><path fill="#0088d3" fill-opacity="0.2745" d="m-14.954699 75.080055c171.16228 1.2176132 222.79921 -102.05626 292.1289 -105.94518c58.66928 -3.3919353 69.578156 18.425789 93.58261 35.397892c23.755981 17.220596 41.44873 22.78685 82.42529 20.848598c40.96414 -1.6897545 36.1185 58.18474 89.693695 63.76342c54.059753 5.330185 78.78485 -55.997997 99.63342 -67.39142c21.097107 -11.157355 36.13098 4.361059 56.482605 11.629494c19.879456 7.2684326 31.285278 6.547802 76.85901 6.547802c45.809753 0 64.96863 81.692215 109.57318 93.08564c44.36847 11.641922 75.15686 -20.364037 75.15686 -20.364037l0 -161.21011l-973.10034 0l-2.435236 123.63791z" fill-rule="evenodd"/><path fill="#0088d3" fill-opacity="0.2745" d="m852.6185 25.465572c6.9678345 25.13853 33.943237 35.292995 60.492798 30.715202c27.868103 -5.0240326 53.04956 18.389454 53.04956 18.389454c0 0 1.9692383 -94.424576 1.2148438 -97.1463c-0.6950073 -2.5074234 -120.552795 15.8511715 -115.68286 43.994286c0.24859619 1.3965054 0.5633545 2.7400742 0.9256592 4.0473633z" fill-rule="evenodd"/><path fill="#00c970" fill-opacity="0.2863" d="m-28.252384 44.741703l6.2364693 19.754147c0 0 38.48487 -7.4837646 47.01338 -34.52978c8.731056 -27.035358 29.743156 -19.338383 54.497143 -16.22548c19.135826 2.292036 81.53249 -6.0232553 89.026924 -34.945545l-186.79556 0l-9.97835 65.946655z" fill-rule="evenodd"/><path fill="#ffffff" d="m879.03143 49.86787c0 2.135849 -1.7359009 3.8723679 -3.873291 3.8723679c-2.0917969 0 -3.8276978 -1.7365189 -3.8276978 -3.8723679c0 -2.0924911 1.7359009 -3.82901 3.8276978 -3.82901c2.1373901 0 3.873291 1.7365189 3.873291 3.82901z" fill-rule="evenodd"/><path fill="#740fa3" fill-opacity="0.2549" d="m687.6808 476.04825c2.4086914 -1.8491821 29.885498 -8.970856 39.875732 -1.3845215c9.9002075 7.6764526 6.1971436 19.150818 18.686157 20.075378c12.489014 0.92459106 17.58136 -8.326019 30.715271 -3.703064c13.043762 4.627655 30.625122 -7.7712708 59.5813 22.94394c28.956116 30.81012 49.866028 2.0341187 56.61786 -1.5741577c6.661804 -3.6082458 28.866089 -27.381989 61.06067 -30.900146c38.5766 -4.163025 66.79309 6.941498 66.79309 31.829468c0 24.978088 -11.564453 38.851624 -11.564453 38.851624c0 0 -20.44519 -14.523132 -38.391663 -8.970886c-17.946472 5.552307 -23.498718 31.085083 -50.145813 30.25061c-26.732422 -0.9246216 -37.00244 -17.021912 -57.817505 -18.04132c-20.819763 -0.92456055 -43.299072 31.179932 -84.09943 40.150757c-40.795593 8.885559 -57.817505 -24.698303 -97.5083 -28.676392c-39.686096 -4.072937 -41.99994 -35.802856 -37.65204 -45.608215c4.163025 -9.625153 43.84912 -45.243073 43.84912 -45.243073z" fill-rule="evenodd"/><path fill="#00c970" fill-opacity="0.2863" d="m934.31195 387.56537c-16.049072 2.5327759 -22.474731 43.530426 -34.13855 61.105255c-12.167297 18.848877 -45.333557 30.86264 -44.464905 46.459656c0.9465332 11.367859 16.773438 20.754974 41.400024 16.86853c15.839905 -2.4997864 35.31537 -10.494659 56.81903 -26.988068c0 0 36.03961 -26.60852 34.322815 -37.487244c-1.748291 -11.077972 -24.026855 -8.35849 -31.880432 -17.686768c-7.652771 -9.349762 0.946228 -38.192963 -18.198975 -42.145233c-1.3522339 -0.28689575 -2.633667 -0.31951904 -3.8590088 -0.12612915z" fill-rule="evenodd"/><path fill="#ffffff" d="m880.3157 462.24417l2.2454834 14.08844c0.0793457 0.7736511 0.3887329 1.5473022 0.8529053 2.1662292c3.019043 -2.9398804 6.1134644 -5.729004 8.823059 -7.9706116l0 0c-2.2454224 2.7058105 -5.0303955 5.8043823 -7.970093 8.823608c0.6188965 0.46420288 1.2377319 0.8529968 2.0113525 0.92837524l9.287231 1.9361267l-9.287231 1.9361267c-0.7736206 0.23010254 -1.392456 0.5395813 -2.0113525 1.0037537c2.9396973 3.019226 5.7246704 6.1178284 8.049438 8.827576c-2.7095947 -2.245575 -5.8079834 -5.0346985 -8.827026 -7.974579c-0.46417236 0.618927 -0.7735596 1.3925781 -0.848938 2.1662292l-2.0153809 14.167786l-2.086731 -14.167786c-0.0793457 -0.7736511 -0.46417236 -1.5473022 -0.8529663 -2.1662292c-3.5625 3.4040833 -6.7323 6.268585 -8.822998 7.974579c1.4678345 -1.9360962 4.411499 -5.1894226 7.73999 -8.74823c-0.54351807 -0.46417236 -1.237793 -0.8529968 -2.0113525 -0.92837524l-9.291199 -1.9361267l9.291199 -1.9360962c0.7735596 -0.23013306 1.4678345 -0.5395813 2.0113525 -1.0077515c-3.3284912 -3.5588074 -6.347534 -6.7327576 -7.97406 -8.823608l0 0c2.0113525 1.7020264 5.1851196 4.5665283 8.747681 7.974579c0.54345703 -0.618927 0.7735596 -1.3925781 0.9282837 -2.1701965l2.0113525 -14.163818z" fill-rule="evenodd"/><path fill="#ffffff" d="m906.4231 508.36084c1.7467041 0 3.16687 1.4199219 3.16687 3.168274c0 1.7109985 -1.420166 3.1309204 -3.16687 3.1309204c-1.7112427 0 -3.1314087 -1.4199219 -3.1314087 -3.1309204c0 -1.748352 1.420166 -3.168274 3.1314087 -3.168274z" fill-rule="evenodd"/><path fill="#ffffff" d="m52.154854 121.69029l1.4855652 9.320206c0.05249405 0.5118103 0.2572174 1.0236206 0.56430435 1.433075c1.9973755 -1.9448853 4.0446205 -3.7900238 5.8372726 -5.272972l0 0c-1.4855652 1.7900314 -3.3280869 3.8398972 -5.2729683 5.8372726c0.40945053 0.30708313 0.81889725 0.56430054 1.3307114 0.61416626l6.144356 1.2808533l-6.144356 1.280838c-0.5118141 0.15222168 -0.92126083 0.35694885 -1.3307114 0.664032c1.9448814 1.9973755 3.787403 4.0472565 5.3254623 5.839905c-1.7926521 -1.4855652 -3.8425217 -3.330719 -5.839897 -5.275589c-0.30708694 0.4094391 -0.5118103 0.9212494 -0.56167984 1.4330597l-1.3333321 9.372711l-1.3805771 -9.372711c-0.05249405 -0.5118103 -0.30708694 -1.0236206 -0.56430435 -1.4330597c-2.3569565 2.2519684 -4.454071 4.1469727 -5.8372726 5.275589c0.9711304 -1.280838 2.9186363 -3.433075 5.120735 -5.7873993c-0.359581 -0.3070984 -0.81889725 -0.5643158 -1.3307076 -0.6141815l-6.1469803 -1.280838l6.1469803 -1.280838c0.5118103 -0.15223694 0.97112656 -0.3569641 1.3307076 -0.66667175c-2.2020988 -2.3543243 -4.1994743 -4.454071 -5.275589 -5.837265l0 0c1.3307076 1.1259766 3.4304466 3.020996 5.7873993 5.275589c0.359581 -0.40945435 0.5118141 -0.92126465 0.6141739 -1.4356995l1.3307076 -9.370071z" fill-rule="evenodd"/><path fill="#ffffff" d="m939.6934 18.457952c1.7467041 0 3.16687 1.4199352 3.16687 3.1682625c0 1.7110119 -1.420166 3.130947 -3.16687 3.130947c-1.7112427 0 -3.1313477 -1.4199352 -3.1313477 -3.130947c0 -1.7483273 1.420105 -3.1682625 3.1313477 -3.1682625z" fill-rule="evenodd"/><path fill="#ffffff" d="m52.198246 491.08136c3.4781837 0 6.3060684 2.8274841 6.3060684 6.308899c0 3.4071045 -2.8278847 6.2345886 -6.3060684 6.2345886c-3.4075813 0 -6.235466 -2.8274841 -6.235466 -6.2345886c0 -3.4814148 2.8278847 -6.308899 6.235466 -6.308899z" fill-rule="evenodd"/><path fill="#ffffff" d="m16.277485 74.75454c1.7467098 0 3.1668434 1.4199371 3.1668434 3.1682663c0 1.7110062 -1.4201336 3.1309433 -3.1668434 3.1309433c-1.7112513 0 -3.1313848 -1.4199371 -3.1313848 -3.1309433c0 -1.7483292 1.4201336 -3.1682663 3.1313848 -3.1682663z" fill-rule="evenodd"/><path fill="#ffffff" d="m177.32117 13.248819l0.88131714 5.893875c0.0801239 0.8011875 0.7231293 1.5222588 1.5243073 1.6434631l3.886795 0.8011894l-3.886795 0.8011894c-0.801178 0.16023827 -1.4441833 0.8813076 -1.5243073 1.682497l-0.88131714 5.893875l-0.8422699 -5.893875c-0.0801239 -0.8011894 -0.7601013 -1.5222588 -1.5633392 -1.682497l-3.847763 -0.8011894l3.847763 -0.8011894c0.8032379 -0.121204376 1.4832153 -0.8422756 1.5633392 -1.6434631l0.8422699 -5.893875z" fill-rule="evenodd"/><path fill="#ffffff" d="m871.5521 13.248819l0.88134766 5.893875c0.080078125 0.8011875 0.7230835 1.5222588 1.524292 1.6434631l3.8867798 0.8011894l-3.8867798 0.8011894c-0.8012085 0.16023827 -1.4442139 0.8813076 -1.524292 1.682497l-0.88134766 5.893875l-0.84228516 -5.893875c-0.080078125 -0.8011894 -0.7600708 -1.5222588 -1.5632935 -1.682497l-3.8477783 -0.8011894l3.8477783 -0.8011894c0.80322266 -0.121204376 1.4832153 -0.8422756 1.5632935 -1.6434631l0.84228516 -5.893875z" fill-rule="evenodd"/><path fill="#ffffff" d="m236.37198 395.34247c1.7467041 0 3.1668396 1.4199219 3.1668396 3.168274c0 1.7109985 -1.4201355 3.1309204 -3.1668396 3.1309204c-1.7112579 0 -3.1313934 -1.4199219 -3.1313934 -3.1309204c0 -1.748352 1.4201355 -3.168274 3.1313934 -3.168274z" fill-rule="evenodd"/><path fill="#000000" fill-opacity="0.0" d="m-17.359652 269.99963l0 0c0 -51.324936 41.607082 -92.93202 92.932014 -92.93202l0 0c24.64711 0 48.28473 9.791016 65.71287 27.219162c17.428131 17.428131 27.219162 41.06575 27.219162 65.71286l0 0c0 51.32492 -41.607086 92.93201 -92.93203 92.93201l0 0c-51.324936 0 -92.932014 -41.607086 -92.932014 -92.93201z" fill-rule="evenodd"/><path stroke="#ffffff" stroke-width="1.0" stroke-linejoin="round" stroke-linecap="butt" d="m-17.359652 269.99963l0 0c0 -51.324936 41.607082 -92.93202 92.932014 -92.93202l0 0c24.64711 0 48.28473 9.791016 65.71287 27.219162c17.428131 17.428131 27.219162 41.06575 27.219162 65.71286l0 0c0 51.32492 -41.607086 92.93201 -92.93203 92.93201l0 0c-51.324936 0 -92.932014 -41.607086 -92.932014 -92.93201z" fill-rule="evenodd"/><path fill="#000000" fill-opacity="0.0" d="m-43.40204 269.99963l0 0c0 -65.70776 53.266655 -118.97441 118.9744 -118.97441l0 0c31.553978 0 61.81559 12.5347595 84.12762 34.8468c22.312027 22.312027 34.846786 52.573624 34.846786 84.12761l0 0c0 65.70773 -53.266647 118.974396 -118.9744 118.974396l0 0c-65.70775 0 -118.9744 -53.266663 -118.9744 -118.974396z" fill-rule="evenodd"/><path stroke="#ffffff" stroke-width="1.0" stroke-linejoin="round" stroke-linecap="butt" d="m-43.40204 269.99963l0 0c0 -65.70776 53.266655 -118.97441 118.9744 -118.97441l0 0c31.553978 0 61.81559 12.5347595 84.12762 34.8468c22.312027 22.312027 34.846786 52.573624 34.846786 84.12761l0 0c0 65.70773 -53.266647 118.974396 -118.9744 118.974396l0 0c-65.70775 0 -118.9744 -53.266663 -118.9744 -118.974396z" fill-rule="evenodd"/><path fill="#000000" fill-opacity="0.0" d="m-61.429287 269.99963l0 0c0 -75.663925 61.33773 -137.00166 137.00165 -137.00166l0 0c36.3351 0 71.182014 14.434067 96.87481 40.12686c25.692795 25.692795 40.126846 60.539703 40.126846 96.8748l0 0c0 75.66391 -61.337723 137.00165 -137.00165 137.00165l0 0c-75.663925 0 -137.00165 -61.337738 -137.00165 -137.00165z" fill-rule="evenodd"/><path stroke="#ffffff" stroke-width="1.0" stroke-linejoin="round" stroke-linecap="butt" d="m-61.429287 269.99963l0 0c0 -75.663925 61.33773 -137.00166 137.00165 -137.00166l0 0c36.3351 0 71.182014 14.434067 96.87481 40.12686c25.692795 25.692795 40.126846 60.539703 40.126846 96.8748l0 0c0 75.66391 -61.337723 137.00165 -137.00165 137.00165l0 0c-75.663925 0 -137.00165 -61.337738 -137.00165 -137.00165z" fill-rule="evenodd"/><path fill="#000000" fill-opacity="0.0" d="m-103.95581 269.99963l0 0c0 -99.15068 80.3775 -179.52818 179.52817 -179.52818l0 0c47.61384 0 93.277534 18.91452 126.945595 52.58258c33.66806 33.668076 52.58258 79.33176 52.58258 126.9456l0 0c0 99.150665 -80.3775 179.52817 -179.52817 179.52817l0 0c-99.15067 0 -179.52817 -80.3775 -179.52817 -179.52817z" fill-rule="evenodd"/><path stroke="#ffffff" stroke-width="1.0" stroke-linejoin="round" stroke-linecap="butt" d="m-103.95581 269.99963l0 0c0 -99.15068 80.3775 -179.52818 179.52817 -179.52818l0 0c47.61384 0 93.277534 18.91452 126.945595 52.58258c33.66806 33.668076 52.58258 79.33176 52.58258 126.9456l0 0c0 99.150665 -80.3775 179.52817 -179.52817 179.52817l0 0c-99.15067 0 -179.52817 -80.3775 -179.52817 -179.52817z" fill-rule="evenodd"/><path fill="#000000" fill-opacity="0.0" d="m-153.45383 269.99994l0 0c0 -126.48755 102.53841 -229.02597 229.02596 -229.02597l0 0c60.741455 0 118.9951 24.129452 161.9458 67.080154c42.9507 42.9507 67.080154 101.204346 67.080154 161.94582l0 0c0 126.48755 -102.53841 229.02594 -229.02596 229.02594l0 0c-126.48755 0 -229.02596 -102.53839 -229.02596 -229.02594z" fill-rule="evenodd"/><path stroke="#ffffff" stroke-width="1.0" stroke-linejoin="round" stroke-linecap="butt" d="m-153.45383 269.99994l0 0c0 -126.48755 102.53841 -229.02597 229.02596 -229.02597l0 0c60.741455 0 118.9951 24.129452 161.9458 67.080154c42.9507 42.9507 67.080154 101.204346 67.080154 161.94582l0 0c0 126.48755 -102.53841 229.02594 -229.02596 229.02594l0 0c-126.48755 0 -229.02596 -102.53839 -229.02596 -229.02594z" fill-rule="evenodd"/><path fill="#000000" fill-opacity="0.0" d="m454.55643 159.28346l428.2205 0l0 85.51181l-428.2205 0z" fill-rule="evenodd"/><path fill="#ffffff" d="m465.58768 158.99529l0 -45.828133l12.421875 0q5.0 0 7.28125 2.4375q2.28125 2.4375 2.28125 8.03125l0 2.0q0 3.2343826 -1.171875 5.2343826q-1.15625 2.0 -3.515625 2.625q3.09375 0.78125 4.140625 3.671875q1.0625 2.875 1.0625 7.015625q0 4.453125 -0.84375 7.78125q-0.828125 3.328125 -3.015625 5.1875q-2.1875 1.84375 -6.21875 1.84375l-12.421875 0zm8.953125 -28.5625l1.875 0q1.28125 0 1.640625 -0.984375q0.375 -1.0 0.375 -2.3750076l0 -4.609375q0 -2.21875 -1.953125 -2.21875l-1.9375 0l0 10.187508zm0.921875 20.484375q3.5625 0 3.5625 -3.375l0 -5.734375q0 -1.953125 -0.59375 -3.078125q-0.578125 -1.140625 -2.1875 -1.140625l-1.703125 0l0 13.28125q0.578125 0.046875 0.921875 0.046875zm26.424591 8.5q-4.171875 0 -6.640625 -1.5625q-2.46875 -1.5625 -3.546875 -4.5q-1.0625 -2.953125 -1.0625 -7.09375l0 -15.703125q0 -5.4375076 3.125 -8.234383q3.125 -2.796875 8.59375 -2.796875q11.25 0 11.25 11.031258l0 2.84375q0 5.15625 -0.109375 6.921875l-13.53125 0l0 7.546875q0 1.046875 0.125 2.046875q0.125 1.0 0.578125 1.65625q0.46875 0.65625 1.484375 0.65625q1.453125 0 1.8125 -1.265625q0.375 -1.265625 0.375 -3.296875l0 -3.75l9.265625 0l0 2.21875q0 4.375 -1.078125 7.328125q-1.078125 2.953125 -3.65625 4.453125q-2.5625 1.5 -6.984375 1.5zm-1.984375 -23.734375l4.4375 0l0 -5.25q0 -2.109375 -0.53125 -3.0312576q-0.515625 -0.921875 -1.5625 -0.921875q-1.109375 0 -1.734375 0.890625q-0.609375 0.8750076 -0.609375 3.0625076l0 5.25zm17.085999 23.3125l0 -39.062508l9.109375 0l0 4.53125q0.625 -2.390625 2.140625 -3.65625q1.515625 -1.28125 4.421875 -1.28125q2.34375 0 4.0 1.078125q1.65625 1.078125 2.328125 2.84375q1.078125 -1.921875 2.515625 -2.921875q1.4375 -1.0 4.125 -1.0q3.25 0 5.0 1.390625q1.765625 1.390625 2.453125 3.859375q0.703125 2.453125 0.703125 5.6875076l0 28.53125l-9.296875 0l0 -28.6875q0 -3.7812576 -1.9375 -3.7812576q-1.0 0 -1.546875 0.6875q-0.546875 0.6875 -0.765625 1.7031326q-0.203125 1.015625 -0.203125 2.03125l0 28.046875l-9.296875 0l0 -28.6875q0 -1.234375 -0.296875 -2.4531326q-0.296875 -1.21875 -1.53125 -1.21875q-1.03125 0 -1.609375 0.75q-0.578125 0.7500076 -0.78125 1.8593826q-0.203125 1.109375 -0.203125 2.171875l0 27.578125l-9.328125 0zm57.31256 0l-5.65625 -45.859383l8.734375 0l3.359375 31.203133l2.984375 -31.203133l8.734375 0l-5.65625 45.859383l-12.5 0zm20.601746 -41.453133l0 -7.765625l9.3125 0l0 7.765625l-9.3125 0zm0 41.453133l0 -39.062508l9.3125 0l0 39.062508l-9.3125 0zm13.014343 0l0 -39.062508l9.328125 0l0 4.984375q0.515625 -2.25 1.9375 -3.8125q1.421875 -1.578125 3.9375 -1.578125q4.0625 0 5.890625 2.5q1.84375 2.5 1.84375 6.8437576l0 30.125l-9.1875 0l0 -29.15625q0 -1.15625 -0.46875 -2.1250076q-0.46875 -0.984375 -1.609375 -0.984375q-1.078125 0 -1.59375 0.75q-0.5 0.7343826 -0.625 1.8437576q-0.125 1.109375 -0.125 2.203125l0 27.46875l-9.328125 0zm34.273438 0.421875q-2.71875 0 -4.3125 -0.984375q-1.578125 -1.0 -2.359375 -2.734375q-0.78125 -1.75 -1.03125 -4.09375q-0.25 -2.34375 -0.25 -5.03125l0 -16.96875q0 -4.5156326 1.59375 -7.2968826q1.609375 -2.78125 5.4375 -2.78125q2.84375 0 4.359375 1.21875q1.53125 1.203125 2.359375 3.359375l0 -10.9375l9.484375 0l0 45.828133l-9.484375 0l0 -4.140625q-0.78125 2.109375 -2.078125 3.34375q-1.28125 1.21875 -3.71875 1.21875zm3.5625 -7.296875q1.328125 0 1.78125 -1.0625q0.453125 -1.078125 0.453125 -3.828125l0 -16.4375q0 -1.375 -0.40625 -2.71875q-0.390625 -1.3437576 -1.78125 -1.3437576q-1.5 0 -1.890625 1.2812576q-0.390625 1.28125 -0.390625 2.78125l0 16.4375q0 4.890625 2.234375 4.890625zm26.669312 7.296875q-11.671875 0 -11.671875 -12.109375l0 -15.671875q0 -5.5312576 3.09375 -8.812508q3.109375 -3.296875 8.578125 -3.296875q5.484375 0 8.578125 3.296875q3.109375 3.28125 3.109375 8.812508l0 15.671875q0 12.109375 -11.6875 12.109375zm0 -7.1875q1.171875 0 1.671875 -0.84375q0.515625 -0.859375 0.515625 -2.15625l0 -19.078125q0 -3.4218826 -2.1875 -3.4218826q-2.1875 0 -2.1875 3.4218826l0 19.078125q0 1.296875 0.5 2.15625q0.515625 0.84375 1.6875 0.84375zm34.73053 7.1875q-3.25 0 -4.96875 -1.515625q-1.703125 -1.515625 -2.328125 -4.140625q-0.625 -2.625 -0.625 -5.96875q0 -3.5625 0.703125 -5.84375q0.703125 -2.28125 2.40625 -3.734375q1.71875 -1.453125 4.703125 -2.46875l5.781311 -1.984375l0 -4.0q0 -3.1562576 -2.046875 -3.1562576q-1.875061 0 -1.875061 2.5468826l0 2.34375l-9.0625 0q-0.03125 -0.203125 -0.03125 -0.53125q0 -0.328125 0 -0.734375q0 -5.8437576 2.75 -8.265633q2.75 -2.4375 8.703186 -2.4375q3.125 0 5.59375 1.109375q2.484375 1.09375 3.921875 3.265625q1.453125 2.15625 1.453125 5.3281326l0 29.765625l-9.265625 0l0 -4.640625q-0.6875 2.453125 -2.25 3.765625q-1.562561 1.296875 -3.562561 1.296875zm3.671936 -7.25q1.140625 0 1.5625 -0.953125q0.421875 -0.96875 0.421875 -2.09375l0 -10.875q-1.9375 0.78125 -3.000061 1.96875q-1.0625 1.171875 -1.0625 3.46875l0 5.03125q0 3.453125 2.078186 3.453125zm6.609375 -34.031258l-12.375061 -2.453125l0 -9.03125l12.375061 5.671875l0 5.8125z" fill-rule="nonzero"/><path fill="#ffffff" d="m465.58768 222.99527l0 -45.828125l12.421875 0q5.0 0 7.28125 2.4375q2.28125 2.4375 2.28125 8.03125l0 2.0q0 3.234375 -1.171875 5.234375q-1.15625 2.0 -3.515625 2.625q3.09375 0.78125 4.140625 3.671875q1.0625 2.875 1.0625 7.015625q0 4.453125 -0.84375 7.78125q-0.828125 3.328125 -3.015625 5.1875q-2.1875 1.84375 -6.21875 1.84375l-12.421875 0zm8.953125 -28.5625l1.875 0q1.28125 0 1.640625 -0.984375q0.375 -1.0 0.375 -2.375l0 -4.609375q0 -2.21875 -1.953125 -2.21875l-1.9375 0l0 10.1875zm0.921875 20.484375q3.5625 0 3.5625 -3.375l0 -5.734375q0 -1.953125 -0.59375 -3.078125q-0.578125 -1.140625 -2.1875 -1.140625l-1.703125 0l0 13.28125q0.578125 0.046875 0.921875 0.046875zm26.846466 8.5q-11.671875 0 -11.671875 -12.109375l0 -15.671875q0 -5.53125 3.09375 -8.8125q3.109375 -3.296875 8.578125 -3.296875q5.484375 0 8.578125 3.296875q3.109375 3.28125 3.109375 8.8125l0 15.671875q0 12.109375 -11.6875 12.109375zm0 -7.1875q1.171875 0 1.671875 -0.84375q0.515625 -0.859375 0.515625 -2.15625l0 -19.078125q0 -3.421875 -2.1875 -3.421875q-2.1875 0 -2.1875 3.421875l0 19.078125q0 1.296875 0.5 2.15625q0.515625 0.84375 1.6875 0.84375zm26.481812 7.1875q-11.671875 0 -11.671875 -12.109375l0 -15.671875q0 -5.53125 3.09375 -8.8125q3.109375 -3.296875 8.578125 -3.296875q5.484375 0 8.578125 3.296875q3.109375 3.28125 3.109375 8.8125l0 15.671875q0 12.109375 -11.6875 12.109375zm0 -7.1875q1.171875 0 1.671875 -0.84375q0.515625 -0.859375 0.515625 -2.15625l0 -19.078125q0 -3.421875 -2.1875 -3.421875q-2.1875 0 -2.1875 3.421875l0 19.078125q0 1.296875 0.5 2.15625q0.515625 0.84375 1.6875 0.84375zm15.122437 6.765625l0 -45.828125l9.21875 0l0 20.234375l4.484375 -13.46875l9.65625 0l-5.859375 16.984375l7.4375 22.078125l-9.90625 0l-5.8125 -18.40625l0 18.40625l-9.21875 0zm49.714966 0.421875q-6.28125 0 -9.0625 -3.125q-2.765625 -3.125 -2.765625 -9.953125l0 -4.484375l9.0625 0l0 5.734375q0 1.59375 0.484375 2.5q0.484375 0.890625 1.671875 0.890625q1.25 0 1.734375 -0.734375q0.484375 -0.734375 0.484375 -2.390625q0 -2.109375 -0.421875 -3.53125q-0.40625 -1.421875 -1.4375 -2.703125q-1.03125 -1.296875 -2.859375 -3.015625l-4.109375 -3.90625q-4.609375 -4.34375 -4.609375 -9.9375q0 -5.859375 2.71875 -8.9375q2.71875 -3.078125 7.875 -3.078125q6.3125 0 8.953125 3.359375q2.640625 3.359375 2.640625 10.21875l-9.328125 0l0 -3.15625q0 -0.9375 -0.53125 -1.453125q-0.53125 -0.53125 -1.4375 -0.53125q-1.09375 0 -1.609375 0.625q-0.5 0.609375 -0.5 1.5625q0 0.96875 0.515625 2.09375q0.515625 1.109375 2.0625 2.578125l5.28125 5.0625q1.59375 1.515625 2.921875 3.203125q1.328125 1.671875 2.125 3.90625q0.8125 2.21875 0.8125 5.421875q0 6.453125 -2.390625 10.125q-2.375 3.65625 -8.28125 3.65625zm13.56012 6.09375l0 -45.578125l9.484375 0l0 4.171875q0.859375 -2.15625 2.375 -3.359375q1.53125 -1.21875 4.359375 -1.21875q3.828125 0 5.40625 2.78125q1.578125 2.78125 1.578125 7.296875l0 19.203125q0 3.0 -0.84375 5.40625q-0.84375 2.40625 -2.65625 3.8125q-1.8125 1.390625 -4.734375 1.390625q-3.796875 0 -5.484375 -4.59375l0 10.6875l-9.484375 0zm11.6875 -13.359375q1.46875 0 1.765625 -1.453125q0.296875 -1.46875 0.296875 -3.609375l0 -15.25q0 -2.15625 -0.296875 -3.59375q-0.296875 -1.453125 -1.765625 -1.453125q-1.5 0 -1.859375 1.46875q-0.34375 1.46875 -0.34375 3.578125l0 15.25q0 2.109375 0.34375 3.59375q0.359375 1.46875 1.859375 1.46875zm22.164062 7.265625q-3.25 0 -4.96875 -1.515625q-1.703125 -1.515625 -2.328125 -4.140625q-0.625 -2.625 -0.625 -5.96875q0 -3.5625 0.703125 -5.84375q0.703125 -2.28125 2.40625 -3.734375q1.71875 -1.453125 4.703125 -2.46875l5.78125 -1.984375l0 -4.0q0 -3.15625 -2.046875 -3.15625q-1.875 0 -1.875 2.546875l0 2.34375l-9.0625 0q-0.03125 -0.203125 -0.03125 -0.53125q0 -0.328125 0 -0.734375q0 -5.84375 2.75 -8.265625q2.75 -2.4375 8.703125 -2.4375q3.125 0 5.59375 1.109375q2.484375 1.09375 3.921875 3.265625q1.453125 2.15625 1.453125 5.328125l0 29.765625l-9.265625 0l0 -4.640625q-0.6875 2.453125 -2.25 3.765625q-1.5625 1.296875 -3.5625 1.296875zm3.671875 -7.25q1.140625 0 1.5625 -0.953125q0.421875 -0.96875 0.421875 -2.09375l0 -10.875q-1.9375 0.78125 -3.0 1.96875q-1.0625 1.171875 -1.0625 3.46875l0 5.03125q0 3.453125 2.078125 3.453125zm26.747437 7.25q-6.5625 0 -9.3125 -3.359375q-2.75 -3.359375 -2.75 -9.875l0 -12.03125q0 -4.890625 1.03125 -8.140625q1.046875 -3.265625 3.65625 -4.875q2.609375 -1.609375 7.234375 -1.609375q3.234375 0 5.796875 1.140625q2.5625 1.140625 4.046875 3.359375q1.484375 2.21875 1.484375 5.421875l0 5.953125l-9.5 0l0 -5.46875q0 -1.34375 -0.390625 -2.265625q-0.390625 -0.9375 -1.6875 -0.9375q-2.296875 0 -2.296875 3.265625l0 18.921875q0 1.203125 0.515625 2.203125q0.53125 1.0 1.71875 1.0q1.234375 0 1.703125 -0.96875q0.484375 -0.984375 0.484375 -2.28125l0 -6.5625l9.453125 0l0 6.8125q0 3.234375 -1.453125 5.546875q-1.4375 2.296875 -3.96875 3.53125q-2.515625 1.21875 -5.765625 1.21875zm25.382874 0q-4.171875 0 -6.640625 -1.5625q-2.46875 -1.5625 -3.546875 -4.5q-1.0625 -2.953125 -1.0625 -7.09375l0 -15.703125q0 -5.4375 3.125 -8.234375q3.125 -2.796875 8.59375 -2.796875q11.25 0 11.25 11.03125l0 2.84375q0 5.15625 -0.109375 6.921875l-13.53125 0l0 7.546875q0 1.046875 0.125 2.046875q0.125 1.0 0.578125 1.65625q0.46875 0.65625 1.484375 0.65625q1.453125 0 1.8125 -1.265625q0.375 -1.265625 0.375 -3.296875l0 -3.75l9.265625 0l0 2.21875q0 4.375 -1.078125 7.328125q-1.078125 2.953125 -3.65625 4.453125q-2.5625 1.5 -6.984375 1.5zm-1.984375 -23.734375l4.4375 0l0 -5.25q0 -2.109375 -0.53125 -3.03125q-0.515625 -0.921875 -1.5625 -0.921875q-1.109375 0 -1.734375 0.890625q-0.609375 0.875 -0.609375 3.0625l0 5.25z" fill-rule="nonzero"/><path fill="#000000" fill-opacity="0.0" d="m454.4908 231.01575l405.22836 0l0 149.70078l-405.22836 0z" fill-rule="evenodd"/><path fill="#ffffff" d="m474.3502 260.49576q-0.1875 0 -0.265625 -0.171875l-0.84375 -2.6875q-0.03125 -0.0625 -0.09375 -0.0625l-6.375 0q-0.0625 0 -0.078125 0.0625l-0.859375 2.6875q-0.0625 0.171875 -0.25 0.171875l-1.15625 0q-0.234375 0 -0.171875 -0.234375l4.71875 -14.531265q0.0625 -0.171875 0.25 -0.171875l1.453125 0q0.1875 0 0.25 0.171875l4.734375 14.531265l0.03125 0.078125q0 0.15625 -0.203125 0.15625l-1.140625 0zm-7.234375 -4.265625q-0.015625 0.046875 0.015625 0.078125q0.03125 0.03125 0.078125 0.03125l5.5 0q0.03125 0 0.0625 -0.03125q0.046875 -0.03125 0.015625 -0.078125l-2.765625 -8.70314q-0.03125 -0.046875 -0.078125 -0.046875q-0.03125 0 -0.046875 0.046875l-2.78125 8.70314zm18.836853 4.375q-1.203125 0 -2.125 -0.375q-0.921875 -0.390625 -1.4375 -1.03125q-0.5 -0.640625 -0.5 -1.4375l0 -0.25q0 -0.21875 0.21875 -0.21875l1.03125 0q0.203125 0 0.203125 0.21875l0 0.171875q0 0.703125 0.734375 1.234375q0.734375 0.515625 1.84375 0.515625q1.109375 0 1.796875 -0.5q0.6875 -0.5 0.6875 -1.28125q0 -0.53125 -0.359375 -0.859375q-0.34375 -0.34375 -0.828125 -0.53125q-0.484375 -0.203125 -1.484375 -0.50001526q-1.1875 -0.34375 -1.96875 -0.6875q-0.765625 -0.34375 -1.28125 -0.9375q-0.515625 -0.609375 -0.515625 -1.546875q0 -1.375 1.0625 -2.1875q1.0625 -0.8125 2.8125 -0.8125q1.171875 0 2.078125 0.390625q0.90625 0.390625 1.390625 1.0625q0.5 0.671875 0.5 1.5l0 0.0625q0 0.21875 -0.21875 0.21875l-1.0 0q-0.21875 0 -0.21875 -0.21875l0 -0.0625q0 -0.734375 -0.6875 -1.21875q-0.6875 -0.484375 -1.859375 -0.484375q-1.09375 0 -1.765625 0.4375q-0.65625 0.4375 -0.65625 1.203125q0 0.71875 0.640625 1.109375q0.640625 0.375 1.984375 0.765625q1.234375 0.359375 2.0 0.6875q0.78125 0.3125 1.328125 0.921875q0.5625 0.60939026 0.5625 1.5937653q0 1.375 -1.09375 2.21875q-1.09375 0.828125 -2.875 0.828125zm13.243256 -10.687515q0 -0.21875 0.21875 -0.21875l1.078125 0q0.21875 0 0.21875 0.21875l0 10.35939q0 0.21875 -0.21875 0.21875l-1.078125 0q-0.21875 0 -0.21875 -0.21875l0 -0.90625q0 -0.046875 -0.046875 -0.0625q-0.046875 -0.03125 -0.0625 0.015625q-0.890625 1.328125 -2.828125 1.328125q-1.03125 0 -1.90625 -0.421875q-0.859375 -0.421875 -1.359375 -1.203125q-0.5 -0.796875 -0.5 -1.90625l0 -7.2031403q0 -0.21875 0.21875 -0.21875l1.09375 0q0.203125 0 0.203125 0.21875l0 6.7656403q0 1.203125 0.6875 1.921875q0.6875 0.71875 1.859375 0.71875q1.203125 0 1.921875 -0.71875q0.71875 -0.734375 0.71875 -1.921875l0 -6.7656403zm8.63504 -0.390625q1.921875 0 2.96875 0.984375q1.046875 0.984375 1.046875 2.609375l0 7.1562653q0 0.21875 -0.21875 0.21875l-1.09375 0q-0.203125 0 -0.203125 -0.21875l0 -0.875q0 -0.03125 -0.03125 -0.046875q-0.03125 -0.03125 -0.078125 0.015625q-0.53125 0.640625 -1.390625 0.96875q-0.84375 0.328125 -1.890625 0.328125q-1.515625 0 -2.546875 -0.765625q-1.015625 -0.765625 -1.015625 -2.34375q0 -1.6093903 1.15625 -2.5312653q1.171875 -0.9375 3.234375 -0.9375l2.46875 0q0.09375 0 0.09375 -0.078125l0 -0.8125q0 -1.078125 -0.609375 -1.703125q-0.609375 -0.640625 -1.890625 -0.640625q-1.015625 0 -1.65625 0.40625q-0.640625 0.390625 -0.796875 1.09375q-0.0625 0.203125 -0.25 0.1875l-1.15625 -0.15625q-0.234375 -0.03125 -0.1875 -0.171875q0.171875 -1.1875 1.28125 -1.9375q1.109375 -0.75 2.765625 -0.75zm-0.59375 9.843765q1.25 0 2.171875 -0.625q0.921875 -0.640625 0.921875 -1.703125l0 -1.6718903q0 -0.078125 -0.09375 -0.078125l-2.234375 0q-1.40625 0 -2.265625 0.578125q-0.84375 0.57814026 -0.84375 1.5937653q0 0.9375 0.640625 1.421875q0.65625 0.484375 1.703125 0.484375zm20.320587 -6.9218903q0.265625 0.96875 0.265625 2.65625q0 1.7500153 -0.3125 2.7031403q-0.390625 1.328125 -1.40625 2.09375q-1.0 0.765625 -2.484375 0.765625q-0.859375 0 -1.5625 -0.34375q-0.703125 -0.34375 -1.171875 -0.984375q-0.015625 -0.03125 -0.0625 -0.015625q-0.046875 0 -0.046875 0.046875l0 0.90625q0 0.21875 -0.21875 0.21875l-1.078125 0q-0.21875 0 -0.21875 -0.21875l0 -14.500015q0 -0.21875 0.21875 -0.21875l1.078125 0q0.21875 0 0.21875 0.21875l0 5.03125q0 0.046875 0.03125 0.0625q0.03125 0 0.078125 -0.03125q0.46875 -0.625 1.171875 -0.96875q0.703125 -0.34375 1.5625 -0.34375q1.515625 0 2.53125 0.78125q1.03125 0.78125 1.40625 2.140625zm-1.640625 5.2343903q0.21875 -0.453125 0.296875 -1.015625q0.09375 -0.5625 0.09375 -1.5625153q0 -1.046875 -0.125 -1.625q-0.109375 -0.59375 -0.375 -1.0625q-0.265625 -0.703125 -0.890625 -1.125q-0.625 -0.4375 -1.46875 -0.4375q-0.8125 0 -1.40625 0.4375q-0.578125 0.4375 -0.84375 1.15625q-0.203125 0.453125 -0.3125 1.03125q-0.09375 0.578125 -0.09375 1.625q0 1.0156403 0.09375 1.5937653q0.109375 0.5625 0.296875 1.0q0.28125 0.75 0.859375 1.203125q0.578125 0.4375 1.421875 0.4375q0.890625 0 1.546875 -0.4375q0.65625 -0.453125 0.90625 -1.21875zm6.0202026 -9.937515q-0.515625 0 -0.859375 -0.34375q-0.34375 -0.34375 -0.34375 -0.859375q0 -0.53125 0.34375 -0.859375q0.34375 -0.328125 0.859375 -0.328125q0.5 0 0.84375 0.328125q0.34375 0.328125 0.34375 0.859375q0 0.515625 -0.34375 0.859375q-0.34375 0.34375 -0.84375 0.34375zm-0.59375 12.73439q-0.21875 0 -0.21875 -0.21875l0 -10.35939q0 -0.21875 0.21875 -0.21875l1.078125 0q0.21875 0 0.21875 0.21875l0 10.35939q0 0.21875 -0.21875 0.21875l-1.078125 0zm13.298096 -8.031265q0.265625 0.96875 0.265625 2.65625q0 1.7500153 -0.3125 2.7031403q-0.390625 1.328125 -1.40625 2.09375q-1.0 0.765625 -2.484375 0.765625q-0.859375 0 -1.5625 -0.34375q-0.703125 -0.34375 -1.171875 -0.984375q-0.015625 -0.03125 -0.0625 -0.015625q-0.046875 0 -0.046875 0.046875l0 0.90625q0 0.21875 -0.21875 0.21875l-1.078125 0q-0.21875 0 -0.21875 -0.21875l0 -14.500015q0 -0.21875 0.21875 -0.21875l1.078125 0q0.21875 0 0.21875 0.21875l0 5.03125q0 0.046875 0.03125 0.0625q0.03125 0 0.078125 -0.03125q0.46875 -0.625 1.171875 -0.96875q0.703125 -0.34375 1.5625 -0.34375q1.515625 0 2.53125 0.78125q1.03125 0.78125 1.40625 2.140625zm-1.640625 5.2343903q0.21875 -0.453125 0.296875 -1.015625q0.09375 -0.5625 0.09375 -1.5625153q0 -1.046875 -0.125 -1.625q-0.109375 -0.59375 -0.375 -1.0625q-0.265625 -0.703125 -0.890625 -1.125q-0.625 -0.4375 -1.46875 -0.4375q-0.8125 0 -1.40625 0.4375q-0.578125 0.4375 -0.84375 1.15625q-0.203125 0.453125 -0.3125 1.03125q-0.09375 0.578125 -0.09375 1.625q0 1.0156403 0.09375 1.5937653q0.109375 0.5625 0.296875 1.0q0.28125 0.75 0.859375 1.203125q0.578125 0.4375 1.421875 0.4375q0.890625 0 1.546875 -0.4375q0.65625 -0.453125 0.90625 -1.21875zm5.2077026 2.8125q-0.21875 0 -0.21875 -0.21875l0 -14.500015q0 -0.21875 0.21875 -0.21875l1.078125 0q0.21875 0 0.21875 0.21875l0 14.500015q0 0.21875 -0.21875 0.21875l-1.078125 0zm5.7179565 -12.750015q-0.515625 0 -0.859375 -0.34375q-0.34375 -0.34375 -0.34375 -0.859375q0 -0.53125 0.34375 -0.859375q0.34375 -0.328125 0.859375 -0.328125q0.5 0 0.84375 0.328125q0.34375 0.328125 0.34375 0.859375q0 0.515625 -0.34375 0.859375q-0.34375 0.34375 -0.84375 0.34375zm-0.59375 12.73439q-0.21875 0 -0.21875 -0.21875l0 -10.35939q0 -0.21875 0.21875 -0.21875l1.078125 0q0.21875 0 0.21875 0.21875l0 10.35939q0 0.21875 -0.21875 0.21875l-1.078125 0zm9.126221 0.1875q-1.546875 0 -2.65625 -0.78125q-1.109375 -0.796875 -1.53125 -2.1875q-0.296875 -0.984375 -0.296875 -2.6250153q0 -1.640625 0.296875 -2.59375q0.40625 -1.375 1.515625 -2.15625q1.109375 -0.796875 2.6875 -0.796875q1.515625 0 2.609375 0.796875q1.109375 0.78125 1.5 2.125q0.3125 0.921875 0.3125 2.625q0 1.7343903 -0.3125 2.6250153q-0.390625 1.390625 -1.5 2.1875q-1.09375 0.78125 -2.625 0.78125zm0 -1.328125q1.015625 0 1.734375 -0.5625q0.734375 -0.5625 0.984375 -1.515625q0.203125 -0.78125 0.203125 -2.1562653q0 -1.40625 -0.171875 -2.15625q-0.265625 -0.96875 -1.0 -1.53125q-0.734375 -0.5625 -1.78125 -0.5625q-1.046875 0 -1.765625 0.5625q-0.71875 0.5625 -0.984375 1.53125q-0.171875 0.75 -0.171875 2.15625q0 1.4062653 0.171875 2.1562653q0.234375 0.953125 0.96875 1.515625q0.734375 0.5625 1.8125 0.5625zm12.2146 -8.593765q0 0.21875 -0.21875 0.21875l-2.40625 0q-0.078125 0 -0.078125 0.078125l0 6.2968903q0 1.015625 0.453125 1.4375q0.453125 0.421875 1.4375 0.421875l0.53125 0q0.21875 0 0.21875 0.203125l0 0.875q0 0.21875 -0.21875 0.21875q-0.25 0.015625 -0.78125 0.015625q-1.53125 0 -2.328125 -0.5625q-0.78125 -0.578125 -0.78125 -2.140625l0 -6.7656403q0 -0.078125 -0.09375 -0.078125l-1.296875 0q-0.21875 0 -0.21875 -0.21875l0 -0.828125q0 -0.21875 0.21875 -0.21875l1.296875 0q0.09375 0 0.09375 -0.078125l0 -2.46875q0 -0.21875 0.203125 -0.21875l1.046875 0q0.21875 0 0.21875 0.21875l0 2.46875q0 0.078125 0.078125 0.078125l2.40625 0q0.21875 0 0.21875 0.21875l0 0.828125zm10.880981 2.546875q0.078125 0.59375 0.078125 1.484375l0 0.6875q0 0.21875 -0.203125 0.21875l-6.890625 0q-0.09375 0 -0.09375 0.078125q0.046875 1.1718903 0.125 1.5156403q0.234375 0.953125 1.0 1.515625q0.78125 0.546875 1.96875 0.546875q0.90625 0 1.578125 -0.40625q0.6875 -0.40625 1.0625 -1.140625q0.140625 -0.203125 0.3125 -0.09375l0.828125 0.5q0.171875 0.09375 0.078125 0.296875q-0.53125 1.015625 -1.59375 1.609375q-1.0625 0.578125 -2.453125 0.578125q-1.515625 -0.015625 -2.546875 -0.71875q-1.015625 -0.703125 -1.46875 -1.96875q-0.375 -1.015625 -0.375 -2.9375153q0 -0.890625 0.03125 -1.453125q0.03125 -0.578125 0.15625 -1.015625q0.359375 -1.390625 1.453125 -2.21875q1.109375 -0.84375 2.65625 -0.84375q1.953125 0 2.984375 0.984375q1.046875 0.984375 1.3125 2.78125zm-4.296875 -2.4375q-1.03125 0 -1.734375 0.546875q-0.6875 0.546875 -0.90625 1.453125q-0.125 0.453125 -0.171875 1.453125q0 0.09375 0.09375 0.09375l5.515625 0q0.09375 0 0.09375 -0.09375q-0.046875 -0.953125 -0.125 -1.359375q-0.234375 -0.96875 -0.953125 -1.53125q-0.71875 -0.5625 -1.8125 -0.5625zm11.46167 9.812515q-1.53125 0 -2.640625 -0.796875q-1.09375 -0.796875 -1.5 -2.171875q-0.28125 -0.9375 -0.28125 -2.6406403q0 -1.53125 0.28125 -2.609375q0.390625 -1.3125 1.5 -2.109375q1.109375 -0.8125 2.640625 -0.8125q1.5625 0 2.703125 0.796875q1.140625 0.78125 1.46875 1.953125q0.109375 0.390625 0.140625 0.640625l0 0.046875q0 0.15625 -0.203125 0.1875l-1.0625 0.15625l-0.046875 0q-0.140625 0 -0.1875 -0.1875l-0.0625 -0.328125q-0.1875 -0.8125 -0.9375 -1.375q-0.75 -0.5625 -1.8125 -0.5625q-1.0625 0 -1.78125 0.5625q-0.71875 0.5625 -0.921875 1.5q-0.203125 0.8125 -0.203125 2.15625q0 1.4062653 0.203125 2.1875153q0.203125 0.953125 0.921875 1.515625q0.71875 0.5625 1.78125 0.5625q1.046875 0 1.796875 -0.53125q0.765625 -0.546875 0.953125 -1.40625l0 -0.078125l0.015625 -0.09375q0.03125 -0.203125 0.265625 -0.171875l1.046875 0.171875q0.203125 0.046875 0.1875 0.234375l-0.09375 0.421875q-0.3125 1.25 -1.46875 2.015625q-1.140625 0.765625 -2.703125 0.765625zm10.746887 -11.14064q1.921875 0 2.96875 0.984375q1.046875 0.984375 1.046875 2.609375l0 7.1562653q0 0.21875 -0.21875 0.21875l-1.09375 0q-0.203125 0 -0.203125 -0.21875l0 -0.875q0 -0.03125 -0.03125 -0.046875q-0.03125 -0.03125 -0.078125 0.015625q-0.53125 0.640625 -1.390625 0.96875q-0.84375 0.328125 -1.890625 0.328125q-1.515625 0 -2.546875 -0.765625q-1.015625 -0.765625 -1.015625 -2.34375q0 -1.6093903 1.15625 -2.5312653q1.171875 -0.9375 3.234375 -0.9375l2.46875 0q0.09375 0 0.09375 -0.078125l0 -0.8125q0 -1.078125 -0.609375 -1.703125q-0.609375 -0.640625 -1.890625 -0.640625q-1.015625 0 -1.65625 0.40625q-0.640625 0.390625 -0.796875 1.09375q-0.0625 0.203125 -0.25 0.1875l-1.15625 -0.15625q-0.234375 -0.03125 -0.1875 -0.171875q0.171875 -1.1875 1.28125 -1.9375q1.109375 -0.75 2.765625 -0.75zm-0.59375 9.843765q1.25 0 2.171875 -0.625q0.921875 -0.640625 0.921875 -1.703125l0 -1.6718903q0 -0.078125 -0.09375 -0.078125l-2.234375 0q-1.40625 0 -2.265625 0.578125q-0.84375 0.57814026 -0.84375 1.5937653q0 0.9375 0.640625 1.421875q0.65625 0.484375 1.703125 0.484375zm16.289368 -12.48439q-1.171875 0 -1.59375 0.53125q-0.421875 0.515625 -0.421875 1.78125l0 0.421875q0 0.078125 0.078125 0.078125l2.390625 0q0.21875 0 0.21875 0.21875l0 0.953125q0 0.21875 -0.21875 0.21875l-2.390625 0q-0.078125 0 -0.078125 0.078125l0 9.10939q0 0.21875 -0.21875 0.21875l-1.0625 0q-0.21875 0 -0.21875 -0.21875l0 -9.10939q0 -0.078125 -0.078125 -0.078125l-1.4375 0q-0.21875 0 -0.21875 -0.21875l0 -0.953125q0 -0.21875 0.21875 -0.21875l1.4375 0q0.078125 0 0.078125 -0.078125l0 -0.515625q0 -1.328125 0.296875 -2.078125q0.296875 -0.75 1.03125 -1.109375q0.734375 -0.359375 2.0625 -0.359375l0.625 0q0.203125 0 0.203125 0.21875l0 0.890625q0 0.21875 -0.203125 0.21875l-0.5 0zm6.6776123 2.640625q1.921875 0 2.96875 0.984375q1.046875 0.984375 1.046875 2.609375l0 7.1562653q0 0.21875 -0.21875 0.21875l-1.09375 0q-0.203125 0 -0.203125 -0.21875l0 -0.875q0 -0.03125 -0.03125 -0.046875q-0.03125 -0.03125 -0.078125 0.015625q-0.53125 0.640625 -1.390625 0.96875q-0.84375 0.328125 -1.890625 0.328125q-1.515625 0 -2.546875 -0.765625q-1.015625 -0.765625 -1.015625 -2.34375q0 -1.6093903 1.15625 -2.5312653q1.171875 -0.9375 3.234375 -0.9375l2.46875 0q0.09375 0 0.09375 -0.078125l0 -0.8125q0 -1.078125 -0.609375 -1.703125q-0.609375 -0.640625 -1.890625 -0.640625q-1.015625 0 -1.65625 0.40625q-0.640625 0.390625 -0.796875 1.09375q-0.0625 0.203125 -0.25 0.1875l-1.15625 -0.15625q-0.234375 -0.03125 -0.1875 -0.171875q0.171875 -1.1875 1.28125 -1.9375q1.109375 -0.75 2.765625 -0.75zm-0.59375 9.843765q1.25 0 2.171875 -0.625q0.921875 -0.640625 0.921875 -1.703125l0 -1.6718903q0 -0.078125 -0.09375 -0.078125l-2.234375 0q-1.40625 0 -2.265625 0.578125q-0.84375 0.57814026 -0.84375 1.5937653q0 0.9375 0.640625 1.421875q0.65625 0.484375 1.703125 0.484375zm10.380066 1.125q-0.1875 0 -0.25 -0.171875l-3.5 -10.39064l-0.015625 -0.078125q0 -0.15625 0.1875 -0.15625l1.21875 0q0.1875 0 0.25 0.171875l2.671875 8.35939q0.015625 0.046875 0.0625 0.046875q0.046875 0 0.0625 -0.046875l2.671875 -8.35939q0.0625 -0.171875 0.25 -0.171875l1.21875 0.03125q0.234375 0 0.171875 0.234375l-3.5 10.35939q-0.0625 0.171875 -0.265625 0.171875l-1.234375 0zm11.1432495 0.171875q-1.546875 0 -2.65625 -0.78125q-1.109375 -0.796875 -1.53125 -2.1875q-0.296875 -0.984375 -0.296875 -2.6250153q0 -1.640625 0.296875 -2.59375q0.40625 -1.375 1.515625 -2.15625q1.109375 -0.796875 2.6875 -0.796875q1.515625 0 2.609375 0.796875q1.109375 0.78125 1.5 2.125q0.3125 0.921875 0.3125 2.625q0 1.7343903 -0.3125 2.6250153q-0.390625 1.390625 -1.5 2.1875q-1.09375 0.78125 -2.625 0.78125zm0 -1.328125q1.015625 0 1.734375 -0.5625q0.734375 -0.5625 0.984375 -1.515625q0.203125 -0.78125 0.203125 -2.1562653q0 -1.40625 -0.171875 -2.15625q-0.265625 -0.96875 -1.0 -1.53125q-0.734375 -0.5625 -1.78125 -0.5625q-1.046875 0 -1.765625 0.5625q-0.71875 0.5625 -0.984375 1.53125q-0.171875 0.75 -0.171875 2.15625q0 1.4062653 0.171875 2.1562653q0.234375 0.953125 0.96875 1.515625q0.734375 0.5625 1.8125 0.5625zm11.858215 -9.750015q0.703125 0 1.203125 0.28125q0.171875 0.09375 0.140625 0.28125l-0.234375 1.046875q-0.0625 0.21875 -0.28125 0.125q-0.359375 -0.15625 -0.828125 -0.15625l-0.28125 0.03125q-1.109375 0.046875 -1.84375 0.828125q-0.71875 0.765625 -0.71875 1.96875l0 6.2812653q0 0.21875 -0.21875 0.21875l-1.078125 0q-0.21875 0 -0.21875 -0.21875l0 -10.35939q0 -0.21875 0.21875 -0.21875l1.078125 0q0.21875 0 0.21875 0.21875l0 1.296875q0 0.0625 0.03125 0.078125q0.03125 0.015625 0.0625 -0.03125q0.4375 -0.796875 1.125 -1.234375q0.703125 -0.4375 1.625 -0.4375zm4.435364 -1.84375q-0.515625 0 -0.859375 -0.34375q-0.34375 -0.34375 -0.34375 -0.859375q0 -0.53125 0.34375 -0.859375q0.34375 -0.328125 0.859375 -0.328125q0.5 0 0.84375 0.328125q0.34375 0.328125 0.34375 0.859375q0 0.515625 -0.34375 0.859375q-0.34375 0.34375 -0.84375 0.34375zm-0.59375 12.73439q-0.21875 0 -0.21875 -0.21875l0 -10.35939q0 -0.21875 0.21875 -0.21875l1.078125 0q0.21875 0 0.21875 0.21875l0 10.35939q0 0.21875 -0.21875 0.21875l-1.078125 0zm9.844971 -9.73439q0 0.21875 -0.21875 0.21875l-2.40625 0q-0.078125 0 -0.078125 0.078125l0 6.2968903q0 1.015625 0.453125 1.4375q0.453125 0.421875 1.4375 0.421875l0.53125 0q0.21875 0 0.21875 0.203125l0 0.875q0 0.21875 -0.21875 0.21875q-0.25 0.015625 -0.78125 0.015625q-1.53125 0 -2.328125 -0.5625q-0.78125 -0.578125 -0.78125 -2.140625l0 -6.7656403q0 -0.078125 -0.09375 -0.078125l-1.296875 0q-0.21875 0 -0.21875 -0.21875l0 -0.828125q0 -0.21875 0.21875 -0.21875l1.296875 0q0.09375 0 0.09375 -0.078125l0 -2.46875q0 -0.21875 0.203125 -0.21875l1.046875 0q0.21875 0 0.21875 0.21875l0 2.46875q0 0.078125 0.078125 0.078125l2.40625 0q0.21875 0 0.21875 0.21875l0 0.828125zm6.6540527 -1.21875q1.921875 0 2.96875 0.984375q1.046875 0.984375 1.046875 2.609375l0 7.1562653q0 0.21875 -0.21875 0.21875l-1.09375 0q-0.203125 0 -0.203125 -0.21875l0 -0.875q0 -0.03125 -0.03125 -0.046875q-0.03125 -0.03125 -0.078125 0.015625q-0.53125 0.640625 -1.390625 0.96875q-0.84375 0.328125 -1.890625 0.328125q-1.515625 0 -2.546875 -0.765625q-1.015625 -0.765625 -1.015625 -2.34375q0 -1.6093903 1.15625 -2.5312653q1.171875 -0.9375 3.234375 -0.9375l2.46875 0q0.09375 0 0.09375 -0.078125l0 -0.8125q0 -1.078125 -0.609375 -1.703125q-0.609375 -0.640625 -1.890625 -0.640625q-1.015625 0 -1.65625 0.40625q-0.640625 0.390625 -0.796875 1.09375q-0.0625 0.203125 -0.25 0.1875l-1.15625 -0.15625q-0.234375 -0.03125 -0.1875 -0.171875q0.171875 -1.1875 1.28125 -1.9375q1.109375 -0.75 2.765625 -0.75zm-0.59375 9.843765q1.25 0 2.171875 -0.625q0.921875 -0.640625 0.921875 -1.703125l0 -1.6718903q0 -0.078125 -0.09375 -0.078125l-2.234375 0q-1.40625 0 -2.265625 0.578125q-0.84375 0.57814026 -0.84375 1.5937653q0 0.9375 0.640625 1.421875q0.65625 0.484375 1.703125 0.484375zm9.054993 -3.7343903q-0.203125 0 -0.203125 -0.21875l-0.109375 -9.640625q0 -0.21875 0.21875 -0.21875l1.078125 0q0.21875 0 0.21875 0.21875l-0.125 9.640625q0 0.21875 -0.21875 0.21875l-0.859375 0zm0.34375 4.7812653q-0.5 0 -0.84375 -0.328125q-0.328125 -0.34375 -0.328125 -0.859375q0 -0.53125 0.328125 -0.859375q0.34375 -0.328125 0.84375 -0.328125q0.53125 0 0.859375 0.328125q0.34375 0.328125 0.34375 0.859375q0 0.515625 -0.34375 0.859375q-0.328125 0.328125 -0.859375 0.328125z" fill-rule="nonzero"/><path fill="#000000" fill-opacity="0.0" d="m822.7139 192.96326l140.59839 0l0 42.015747l-140.59839 0z" fill-rule="evenodd"/><path fill="#000000" fill-opacity="0.0" d="m429.3071 31.412073l534.01575 0l0 42.015747l-534.01575 0z" fill-rule="evenodd"/></g></svg>